<svg width="512" height="512" viewBox="0 0 512 512" fill="none" xmlns="http://www.w3.org/2000/svg">
<path d="M25.0012 447.633L25.0012 155.926H487.001V447.633C487.002 452.602 486.024 457.523 484.123 462.114C482.222 466.706 479.435 470.877 475.921 474.391C472.407 477.905 468.236 480.692 463.645 482.594C459.053 484.495 454.133 485.473 449.163 485.472L62.8329 485.472C57.8641 485.472 52.944 484.494 48.3535 482.592C43.7631 480.69 39.5922 477.903 36.0791 474.389C32.566 470.875 29.7795 466.704 27.8788 462.113C25.978 457.522 25.0002 452.602 25.0012 447.633Z" fill="url(#paint0_linear_587_176)"/>
<path d="M486.994 113.232V155.927L24.9938 155.927V113.232C24.9938 108.262 25.9727 103.342 27.8747 98.7511C29.7767 94.1604 32.5645 89.9893 36.0787 86.4762C39.593 82.963 43.765 80.1766 48.3564 78.2761C52.9478 76.3756 57.8686 75.3983 62.8378 75.3999L449.162 75.3999C459.196 75.3999 468.818 79.3857 475.913 86.4805C483.008 93.5754 486.994 103.198 486.994 113.232Z" fill="url(#paint1_linear_587_176)"/>
<path opacity="0.5" d="M271.112 176.541L207.248 240.192L122.734 155.922L95.0776 128.35L109.292 75.3984H169.658L271.112 176.541Z" fill="url(#paint2_linear_587_176)"/>
<path opacity="0.5" d="M487.002 113.165V232.869L409.818 155.922L382.16 128.356L396.39 75.4045H449.102C452.022 75.3958 454.933 75.736 457.772 76.4178L486.001 104.56C486.671 107.379 487.007 110.267 487.002 113.165Z" fill="url(#paint3_linear_587_176)"/>
<path opacity="0.5" d="M487.002 280.891V404.923L394.249 312.455L342.982 261.347L427.049 221.124L487.002 280.891Z" fill="url(#paint4_linear_587_176)"/>
<path opacity="0.5" d="M425.135 347.936L362.931 409.949L213.869 261.345L297.936 221.128L425.135 347.936Z" fill="url(#paint5_linear_587_176)"/>
<path opacity="0.5" d="M297.66 347.936L235.457 409.949L86.3938 261.345L170.461 221.128L297.66 347.936Z" fill="url(#paint6_linear_587_176)"/>
<path opacity="0.5" d="M487.001 360.908V447.695C487.016 457.592 483.119 467.094 476.16 474.132L392.308 390.537L340.01 338.401L394.249 312.455L424.077 298.177L487.001 360.908Z" fill="url(#paint7_linear_587_176)"/>
<path opacity="0.5" d="M422.164 424.987L359.961 487L210.9 338.396L294.965 298.179L422.164 424.987Z" fill="url(#paint8_linear_587_176)"/>
<path opacity="0.5" d="M294.691 424.987L232.486 487L83.4243 338.396L167.49 298.179L294.691 424.987Z" fill="url(#paint9_linear_587_176)"/>
<path opacity="0.5" d="M487.001 442.46V447.696C486.98 457.728 482.976 467.342 475.869 474.423C468.762 481.504 459.134 485.474 449.102 485.46H405.737L337.038 416.973L392.308 390.536L421.106 376.765L487.001 442.46Z" fill="url(#paint10_linear_587_176)"/>
<path opacity="0.5" d="M401.025 485.462H276.625L207.927 416.975L291.994 376.767L401.025 485.462Z" fill="url(#paint11_linear_587_176)"/>
<path opacity="0.5" d="M273.545 485.462H149.146L80.4476 416.975L164.515 376.767L273.545 485.462Z" fill="url(#paint12_linear_587_176)"/>
<path d="M151.902 211.624H104.844C89.9481 211.624 77.8726 223.699 77.8726 238.595V241.176C77.8726 256.072 89.9481 268.148 104.844 268.148H151.902C166.798 268.148 178.873 256.072 178.873 241.176V238.595C178.873 223.699 166.798 211.624 151.902 211.624Z" fill="url(#paint13_linear_587_176)"/>
<path d="M279.526 211.624H232.469C217.573 211.624 205.497 223.699 205.497 238.595V241.176C205.497 256.072 217.573 268.148 232.469 268.148H279.526C294.422 268.148 306.498 256.072 306.498 241.176V238.595C306.498 223.699 294.422 211.624 279.526 211.624Z" fill="url(#paint14_linear_587_176)"/>
<path d="M407.152 211.624H360.095C345.199 211.624 333.123 223.699 333.123 238.595V241.176C333.123 256.072 345.199 268.148 360.095 268.148H407.152C422.048 268.148 434.124 256.072 434.124 241.176V238.595C434.124 223.699 422.048 211.624 407.152 211.624Z" fill="url(#paint15_linear_587_176)"/>
<path d="M151.902 292.433H104.844C89.9481 292.433 77.8726 304.509 77.8726 319.405V321.986C77.8726 336.882 89.9481 348.958 104.844 348.958H151.902C166.798 348.958 178.873 336.882 178.873 321.986V319.405C178.873 304.509 166.798 292.433 151.902 292.433Z" fill="url(#paint16_linear_587_176)"/>
<path d="M279.526 292.433H232.469C217.573 292.433 205.497 304.509 205.497 319.405V321.986C205.497 336.882 217.573 348.958 232.469 348.958H279.526C294.422 348.958 306.498 336.882 306.498 321.986V319.405C306.498 304.509 294.422 292.433 279.526 292.433Z" fill="url(#paint17_linear_587_176)"/>
<path d="M407.152 292.433H360.095C345.199 292.433 333.123 304.509 333.123 319.405V321.986C333.123 336.882 345.199 348.958 360.095 348.958H407.152C422.048 348.958 434.124 336.882 434.124 321.986V319.405C434.124 304.509 422.048 292.433 407.152 292.433Z" fill="url(#paint18_linear_587_176)"/>
<path d="M151.902 373.243H104.844C89.9481 373.243 77.8726 385.319 77.8726 400.215V402.796C77.8726 417.692 89.9481 429.768 104.844 429.768H151.902C166.798 429.768 178.873 417.692 178.873 402.796V400.215C178.873 385.319 166.798 373.243 151.902 373.243Z" fill="url(#paint19_linear_587_176)"/>
<path d="M279.526 373.243H232.469C217.573 373.243 205.497 385.319 205.497 400.215V402.796C205.497 417.692 217.573 429.768 232.469 429.768H279.526C294.422 429.768 306.498 417.692 306.498 402.796V400.215C306.498 385.319 294.422 373.243 279.526 373.243Z" fill="url(#paint20_linear_587_176)"/>
<path d="M407.152 373.243H360.095C345.199 373.243 333.123 385.319 333.123 400.215V402.796C333.123 417.692 345.199 429.768 360.095 429.768H407.152C422.048 429.768 434.124 417.692 434.124 402.796V400.215C434.124 385.319 422.048 373.243 407.152 373.243Z" fill="url(#paint21_linear_587_176)"/>
<path d="M370.579 53.3051V107.593C370.579 123.226 383.252 135.898 398.884 135.898H398.972C414.604 135.898 427.277 123.226 427.277 107.593V53.3051C427.277 37.6726 414.604 24.9999 398.972 24.9999H398.884C383.252 24.9999 370.579 37.6726 370.579 53.3051Z" fill="url(#paint22_linear_587_176)"/>
<path d="M85.3632 53.3052V107.593C85.3632 123.226 98.0358 135.898 113.668 135.898H113.756C129.389 135.898 142.061 123.226 142.061 107.593V53.3052C142.061 37.6726 129.389 25 113.756 25H113.668C98.0358 25 85.3632 37.6726 85.3632 53.3052Z" fill="url(#paint23_linear_587_176)"/>
<path opacity="0.5" d="M487.001 446.988V447.695C486.993 452.663 486.005 457.581 484.096 462.168C482.187 466.754 479.393 470.92 475.873 474.427C472.354 477.934 468.178 480.713 463.585 482.606C458.991 484.499 454.07 485.469 449.102 485.46H62.8852C57.9178 485.469 52.9972 484.499 48.4047 482.605C43.8122 480.712 39.6377 477.932 36.1197 474.425C32.6017 470.918 29.809 466.753 27.9013 462.166C25.9935 457.58 25.0081 452.662 25.0012 447.695V446.988C26.88 447.236 28.7733 447.36 30.6684 447.357H481.319C483.219 447.359 485.117 447.236 487.001 446.988Z" fill="url(#paint24_linear_587_176)"/>
<path opacity="0.5" d="M427.282 89.8755V107.639C427.282 115.159 424.295 122.37 418.978 127.687C413.661 133.004 406.45 135.991 398.93 135.991C391.411 135.991 384.2 133.004 378.883 127.687C373.566 122.37 370.579 115.159 370.579 107.639V89.8755C370.579 97.3947 373.566 104.606 378.883 109.923C384.2 115.24 391.411 118.227 398.93 118.227C406.45 118.227 413.661 115.24 418.978 109.923C424.295 104.606 427.282 97.3947 427.282 89.8755Z" fill="url(#paint25_linear_587_176)"/>
<path opacity="0.5" d="M142.061 89.8755V107.639C142.006 115.122 138.995 122.28 133.684 127.552C128.374 132.823 121.194 135.782 113.711 135.782C106.228 135.782 99.0482 132.823 93.7374 127.552C88.4266 122.28 85.4154 115.122 85.3602 107.639V89.8755C85.4154 97.3583 88.4266 104.516 93.7374 109.788C99.0482 115.06 106.228 118.018 113.711 118.018C121.194 118.018 128.374 115.06 133.684 109.788C138.995 104.516 142.006 97.3583 142.061 89.8755Z" fill="url(#paint26_linear_587_176)"/>
<defs>
<linearGradient id="paint0_linear_587_176" x1="25.0012" y1="320.695" x2="741.6" y2="320.695" gradientUnits="userSpaceOnUse">
<stop stop-color="#F5FAFF"/>
<stop offset="1" stop-color="#B6D1F1"/>
</linearGradient>
<linearGradient id="paint1_linear_587_176" x1="25.0015" y1="115.662" x2="486.995" y2="115.662" gradientUnits="userSpaceOnUse">
<stop stop-color="#C63454"/>
<stop offset="0.399" stop-color="#D95270"/>
<stop offset="0.755" stop-color="#E66582"/>
<stop offset="1" stop-color="#EA6C88"/>
</linearGradient>
<linearGradient id="paint2_linear_587_176" x1="199.844" y1="169.194" x2="-13.1505" y2="-43.7991" gradientUnits="userSpaceOnUse">
<stop stop-opacity="0"/>
<stop offset="1"/>
</linearGradient>
<linearGradient id="paint3_linear_587_176" x1="466.566" y1="149.799" x2="338.74" y2="18.5784" gradientUnits="userSpaceOnUse">
<stop stop-opacity="0"/>
<stop offset="1"/>
</linearGradient>
<linearGradient id="paint4_linear_587_176" x1="451.582" y1="307.709" x2="309.493" y2="165.621" gradientUnits="userSpaceOnUse">
<stop stop-opacity="0"/>
<stop offset="1"/>
</linearGradient>
<linearGradient id="paint5_linear_587_176" x1="347.026" y1="329.9" x2="75.1767" y2="58.0508" gradientUnits="userSpaceOnUse">
<stop stop-opacity="0"/>
<stop offset="1"/>
</linearGradient>
<linearGradient id="paint6_linear_587_176" x1="219.562" y1="329.823" x2="-52.2874" y2="57.973" gradientUnits="userSpaceOnUse">
<stop stop-opacity="0"/>
<stop offset="1"/>
</linearGradient>
<linearGradient id="paint7_linear_587_176" x1="446.721" y1="382.87" x2="295.958" y2="232.107" gradientUnits="userSpaceOnUse">
<stop stop-opacity="0"/>
<stop offset="1"/>
</linearGradient>
<linearGradient id="paint8_linear_587_176" x1="344.103" y1="406.943" x2="72.2546" y2="135.094" gradientUnits="userSpaceOnUse">
<stop stop-opacity="0"/>
<stop offset="1"/>
</linearGradient>
<linearGradient id="paint9_linear_587_176" x1="216.639" y1="406.865" x2="-55.2098" y2="135.016" gradientUnits="userSpaceOnUse">
<stop stop-opacity="0"/>
<stop offset="1"/>
</linearGradient>
<linearGradient id="paint10_linear_587_176" x1="412.02" y1="449.599" x2="412.02" y2="251.297" gradientUnits="userSpaceOnUse">
<stop stop-opacity="0"/>
<stop offset="1"/>
</linearGradient>
<linearGradient id="paint11_linear_587_176" x1="304.476" y1="449.6" x2="304.476" y2="251.297" gradientUnits="userSpaceOnUse">
<stop stop-opacity="0"/>
<stop offset="1"/>
</linearGradient>
<linearGradient id="paint12_linear_587_176" x1="176.996" y1="449.6" x2="176.996" y2="251.297" gradientUnits="userSpaceOnUse">
<stop stop-opacity="0"/>
<stop offset="1"/>
</linearGradient>
<linearGradient id="paint13_linear_587_176" x1="128.374" y1="211.624" x2="128.374" y2="268.148" gradientUnits="userSpaceOnUse">
<stop stop-color="#EFBD61"/>
<stop offset="1" stop-color="#F27A46"/>
</linearGradient>
<linearGradient id="paint14_linear_587_176" x1="255.998" y1="211.624" x2="255.998" y2="268.148" gradientUnits="userSpaceOnUse">
<stop stop-color="#EFBD61"/>
<stop offset="1" stop-color="#F27A46"/>
</linearGradient>
<linearGradient id="paint15_linear_587_176" x1="383.623" y1="268.148" x2="383.623" y2="211.624" gradientUnits="userSpaceOnUse">
<stop stop-color="#C63454"/>
<stop offset="0.399" stop-color="#D95270"/>
<stop offset="0.755" stop-color="#E66582"/>
<stop offset="1" stop-color="#EA6C88"/>
</linearGradient>
<linearGradient id="paint16_linear_587_176" x1="128.374" y1="292.433" x2="128.374" y2="348.958" gradientUnits="userSpaceOnUse">
<stop stop-color="#EFBD61"/>
<stop offset="1" stop-color="#F27A46"/>
</linearGradient>
<linearGradient id="paint17_linear_587_176" x1="255.998" y1="292.433" x2="255.998" y2="348.958" gradientUnits="userSpaceOnUse">
<stop stop-color="#EFBD61"/>
<stop offset="1" stop-color="#F27A46"/>
</linearGradient>
<linearGradient id="paint18_linear_587_176" x1="383.623" y1="348.958" x2="383.623" y2="292.433" gradientUnits="userSpaceOnUse">
<stop stop-color="#C63454"/>
<stop offset="0.399" stop-color="#D95270"/>
<stop offset="0.755" stop-color="#E66582"/>
<stop offset="1" stop-color="#EA6C88"/>
</linearGradient>
<linearGradient id="paint19_linear_587_176" x1="128.374" y1="373.243" x2="128.374" y2="429.768" gradientUnits="userSpaceOnUse">
<stop stop-color="#EFBD61"/>
<stop offset="1" stop-color="#F27A46"/>
</linearGradient>
<linearGradient id="paint20_linear_587_176" x1="255.998" y1="373.243" x2="255.998" y2="429.768" gradientUnits="userSpaceOnUse">
<stop stop-color="#EFBD61"/>
<stop offset="1" stop-color="#F27A46"/>
</linearGradient>
<linearGradient id="paint21_linear_587_176" x1="383.623" y1="429.768" x2="383.623" y2="373.243" gradientUnits="userSpaceOnUse">
<stop stop-color="#C63454"/>
<stop offset="0.399" stop-color="#D95270"/>
<stop offset="0.755" stop-color="#E66582"/>
<stop offset="1" stop-color="#EA6C88"/>
</linearGradient>
<linearGradient id="paint22_linear_587_176" x1="370.581" y1="80.4492" x2="427.279" y2="80.4492" gradientUnits="userSpaceOnUse">
<stop stop-color="#F5FAFF"/>
<stop offset="1" stop-color="#B6D1F1"/>
</linearGradient>
<linearGradient id="paint23_linear_587_176" x1="85.3647" y1="80.4492" x2="142.063" y2="80.4492" gradientUnits="userSpaceOnUse">
<stop stop-color="#F5FAFF"/>
<stop offset="1" stop-color="#B6D1F1"/>
</linearGradient>
<linearGradient id="paint24_linear_587_176" x1="256.004" y1="448.46" x2="256.004" y2="522.844" gradientUnits="userSpaceOnUse">
<stop stop-opacity="0"/>
<stop offset="1"/>
</linearGradient>
<linearGradient id="paint25_linear_587_176" x1="398.93" y1="112.889" x2="398.93" y2="169.417" gradientUnits="userSpaceOnUse">
<stop stop-opacity="0"/>
<stop offset="1"/>
</linearGradient>
<linearGradient id="paint26_linear_587_176" x1="113.71" y1="112.889" x2="113.71" y2="169.417" gradientUnits="userSpaceOnUse">
<stop stop-opacity="0"/>
<stop offset="1"/>
</linearGradient>
</defs>
</svg>
