<svg width="512" height="512" viewBox="0 0 512 512" fill="none" xmlns="http://www.w3.org/2000/svg">
<path d="M438.996 112.53H73.0104C42.0802 112.53 17.0063 137.604 17.0063 168.534V388.46C17.0063 419.391 42.0802 444.464 73.0104 444.464H438.996C469.926 444.464 495 419.391 495 388.46V168.534C495 137.604 469.926 112.53 438.996 112.53Z" fill="url(#paint0_linear_587_206)"/>
<path d="M295.336 68H216.67C211.21 67.9996 205.835 69.3615 201.034 71.9623C196.233 74.5631 192.157 78.3206 189.174 82.8945L169.847 112.53H342.159L322.832 82.8945C319.85 78.3206 315.773 74.5631 310.972 71.9623C306.171 69.3615 300.796 67.9996 295.336 68Z" fill="url(#paint1_linear_587_206)"/>
<path d="M288.184 81.4238H223.823C218.941 81.4238 214.983 85.3816 214.983 90.2636V90.2652C214.983 95.1473 218.941 99.105 223.823 99.105H288.184C293.066 99.105 297.024 95.1473 297.024 90.2652V90.2636C297.024 85.3816 293.066 81.4238 288.184 81.4238Z" fill="url(#paint2_linear_587_206)"/>
<path d="M495 168.532V182.1H17V168.532C17.003 153.679 22.9045 139.435 33.4069 128.933C43.9094 118.43 58.1529 112.529 73.0056 112.526H438.994C453.847 112.527 468.092 118.428 478.595 128.93C489.098 139.433 494.999 153.678 495 168.532Z" fill="url(#paint3_linear_587_206)"/>
<path d="M17 374.892H495V388.46C495.001 395.815 493.553 403.099 490.738 409.894C487.924 416.689 483.799 422.863 478.598 428.064C473.397 433.265 467.223 437.39 460.428 440.205C453.632 443.019 446.349 444.467 438.994 444.466H73.0056C58.1523 444.465 43.9075 438.564 33.4046 428.061C22.9017 417.559 17.0008 403.314 17 388.46V374.892Z" fill="url(#paint4_linear_587_206)"/>
<path opacity="0.5" d="M495 374.892V388.46C495.001 395.815 493.553 403.099 490.738 409.894C487.924 416.689 483.799 422.863 478.598 428.064C473.397 433.265 467.223 437.39 460.428 440.205C453.632 443.019 446.349 444.467 438.994 444.466H73.0056C58.1523 444.465 43.9075 438.564 33.4046 428.061C22.9017 417.559 17.0008 403.314 17 388.46V374.892H18.2619C20.9563 387.41 27.8597 398.626 37.8213 406.671C47.783 414.716 60.201 419.104 73.0056 419.103H438.994C451.799 419.106 464.219 414.719 474.181 406.674C484.143 398.628 491.046 387.411 493.738 374.892H495Z" fill="url(#paint5_linear_587_206)"/>
<path opacity="0.5" d="M495 343.355V388.461C495.001 395.816 493.553 403.099 490.739 409.894C487.924 416.689 483.799 422.864 478.598 428.064C473.397 433.265 467.223 437.391 460.428 440.205C453.632 443.019 446.349 444.467 438.994 444.466H247.681L186.587 383.372L360.808 209.165L495 343.355Z" fill="url(#paint6_linear_587_206)"/>
<path d="M256.003 405.487C326.138 405.487 382.993 348.632 382.993 278.497C382.993 208.362 326.138 151.507 256.003 151.507C185.868 151.507 129.013 208.362 129.013 278.497C129.013 348.632 185.868 405.487 256.003 405.487Z" fill="url(#paint7_linear_587_206)"/>
<path opacity="0.9" d="M256 374.124C237.086 374.124 218.597 368.516 202.871 358.009C187.145 347.502 174.888 332.567 167.649 315.093C160.411 297.619 158.517 278.392 162.207 259.842C165.897 241.291 175.004 224.252 188.378 210.878C201.752 197.504 218.791 188.397 237.342 184.707C255.892 181.017 275.119 182.911 292.593 190.149C310.067 197.388 325.002 209.645 335.509 225.371C346.016 241.097 351.624 259.586 351.624 278.5C351.594 303.852 341.51 328.157 323.584 346.084C305.657 364.01 281.352 374.094 256 374.124Z" fill="url(#paint8_linear_587_206)"/>
<path d="M438.937 136.733H377.762C372 136.733 367.329 141.404 367.329 147.166V150.923C367.329 156.685 372 161.357 377.762 161.357H438.937C444.699 161.357 449.37 156.685 449.37 150.923V147.166C449.37 141.404 444.699 136.733 438.937 136.733Z" fill="url(#paint9_linear_587_206)"/>
<path d="M67.4831 394.381H67.4815C60.6969 394.381 55.1969 399.881 55.1969 406.666V406.72C55.1969 413.505 60.6969 419.005 67.4815 419.005H67.4831C74.2677 419.005 79.7677 413.505 79.7677 406.72V406.666C79.7677 399.881 74.2677 394.381 67.4831 394.381Z" fill="url(#paint10_linear_587_206)"/>
<path d="M256 320.521C247.688 320.521 239.563 318.056 232.652 313.438C225.742 308.821 220.355 302.257 217.175 294.578C213.994 286.899 213.162 278.449 214.783 270.297C216.405 262.146 220.408 254.658 226.285 248.78C232.162 242.903 239.65 238.901 247.802 237.28C255.954 235.658 264.404 236.491 272.083 239.672C279.762 242.853 286.325 248.239 290.943 255.15C295.56 262.061 298.024 270.187 298.024 278.498C298.013 289.64 293.582 300.323 285.703 308.201C277.825 316.08 267.142 320.51 256 320.521Z" fill="url(#paint11_linear_587_206)"/>
<path opacity="0.52" d="M256 374.124C237.086 374.124 218.597 368.516 202.871 358.009C187.145 347.502 174.888 332.567 167.649 315.093C160.411 297.619 158.517 278.392 162.207 259.842C165.897 241.291 175.004 224.252 188.378 210.878C201.752 197.504 218.791 188.397 237.342 184.707C255.892 181.017 275.119 182.911 292.593 190.149C310.067 197.388 325.002 209.645 335.509 225.371C346.016 241.097 351.624 259.586 351.624 278.5C351.594 303.852 341.51 328.157 323.584 346.084C305.657 364.01 281.352 374.094 256 374.124Z" fill="url(#paint12_radial_587_206)"/>
<path d="M103.736 84.0305H144.127C147.108 84.0305 149.966 85.2145 152.074 87.322C154.181 89.4295 155.365 92.2878 155.365 95.2683V112.53H92.4985V95.2683C92.4985 92.2878 93.6825 89.4295 95.79 87.322C97.8975 85.2145 100.756 84.0305 103.736 84.0305Z" fill="url(#paint13_linear_587_206)"/>
<path opacity="0.5" d="M155.365 102.891H92.4985V112.53H155.365V102.891Z" fill="url(#paint14_linear_587_206)"/>
<path opacity="0.5" d="M382.989 278.503C382.989 312.183 369.609 344.483 345.794 368.298C321.979 392.113 289.679 405.492 256 405.492C222.32 405.492 190.02 392.113 166.205 368.298C142.39 344.483 129.011 312.183 129.011 278.503C129.011 277.241 129.026 275.967 129.07 274.719C130.083 307.708 143.899 339.008 167.592 361.985C191.286 384.963 222.994 397.813 255.999 397.813C289.004 397.813 320.713 384.963 344.406 361.985C368.099 339.008 381.916 307.708 382.928 274.719C382.973 275.967 382.989 277.241 382.989 278.503Z" fill="url(#paint15_linear_587_206)"/>
<defs>
<linearGradient id="paint0_linear_587_206" x1="256.003" y1="231.347" x2="256.003" y2="445.943" gradientUnits="userSpaceOnUse">
<stop stop-color="#19223D"/>
<stop offset="1" stop-color="#040A21"/>
</linearGradient>
<linearGradient id="paint1_linear_587_206" x1="256.003" y1="79.8926" x2="256.003" y2="113.588" gradientUnits="userSpaceOnUse">
<stop stop-color="#F5FAFF"/>
<stop offset="1" stop-color="#B6D1F1"/>
</linearGradient>
<linearGradient id="paint2_linear_587_206" x1="214.983" y1="90.2652" x2="297.024" y2="90.2652" gradientUnits="userSpaceOnUse">
<stop stop-color="#EFBD61"/>
<stop offset="1" stop-color="#F27A46"/>
</linearGradient>
<linearGradient id="paint3_linear_587_206" x1="255.998" y1="137.431" x2="255.998" y2="182.411" gradientUnits="userSpaceOnUse">
<stop stop-color="#F5FAFF"/>
<stop offset="1" stop-color="#B6D1F1"/>
</linearGradient>
<linearGradient id="paint4_linear_587_206" x1="255.998" y1="399.797" x2="255.998" y2="444.777" gradientUnits="userSpaceOnUse">
<stop stop-color="#F5FAFF"/>
<stop offset="1" stop-color="#B6D1F1"/>
</linearGradient>
<linearGradient id="paint5_linear_587_206" x1="255.998" y1="412.056" x2="255.998" y2="496.837" gradientUnits="userSpaceOnUse">
<stop stop-opacity="0"/>
<stop offset="1"/>
</linearGradient>
<linearGradient id="paint6_linear_587_206" x1="388.245" y1="435.869" x2="282.524" y2="274.332" gradientUnits="userSpaceOnUse">
<stop stop-opacity="0"/>
<stop offset="1"/>
</linearGradient>
<linearGradient id="paint7_linear_587_206" x1="256.003" y1="166.753" x2="256.003" y2="420.732" gradientUnits="userSpaceOnUse">
<stop stop-color="#F5FAFF"/>
<stop offset="1" stop-color="#B6D1F1"/>
</linearGradient>
<linearGradient id="paint8_linear_587_206" x1="256.003" y1="278.497" x2="256.003" y2="469.751" gradientUnits="userSpaceOnUse">
<stop stop-color="#19223D"/>
<stop offset="1" stop-color="#040A21"/>
</linearGradient>
<linearGradient id="paint9_linear_587_206" x1="367.329" y1="149.045" x2="449.37" y2="149.045" gradientUnits="userSpaceOnUse">
<stop stop-color="#EFBD61"/>
<stop offset="1" stop-color="#F27A46"/>
</linearGradient>
<linearGradient id="paint10_linear_587_206" x1="55.1969" y1="406.691" x2="79.7677" y2="406.691" gradientUnits="userSpaceOnUse">
<stop stop-color="#C63454"/>
<stop offset="0.399" stop-color="#D95270"/>
<stop offset="0.755" stop-color="#E66582"/>
<stop offset="1" stop-color="#EA6C88"/>
</linearGradient>
<linearGradient id="paint11_linear_587_206" x1="256.003" y1="278.497" x2="256.003" y2="362.546" gradientUnits="userSpaceOnUse">
<stop stop-color="#19223D"/>
<stop offset="1" stop-color="#040A21"/>
</linearGradient>
<radialGradient id="paint12_radial_587_206" cx="0" cy="0" r="1" gradientUnits="userSpaceOnUse" gradientTransform="translate(214.983 233.233) scale(77.5411 77.5411)">
<stop stop-color="#F5FAFF"/>
<stop offset="1" stop-color="#B6D1F1" stop-opacity="0"/>
</radialGradient>
<linearGradient id="paint13_linear_587_206" x1="92.4985" y1="98.2813" x2="155.365" y2="98.2813" gradientUnits="userSpaceOnUse">
<stop stop-color="#EFBD61"/>
<stop offset="1" stop-color="#F27A46"/>
</linearGradient>
<linearGradient id="paint14_linear_587_206" x1="123.932" y1="105.352" x2="123.932" y2="131.338" gradientUnits="userSpaceOnUse">
<stop stop-opacity="0"/>
<stop offset="1"/>
</linearGradient>
<linearGradient id="paint15_linear_587_206" x1="255.998" y1="358.951" x2="255.998" y2="489.723" gradientUnits="userSpaceOnUse">
<stop stop-opacity="0"/>
<stop offset="1"/>
</linearGradient>
</defs>
</svg>
