<svg width="512" height="512" viewBox="0 0 512 512" fill="none" xmlns="http://www.w3.org/2000/svg">
<path d="M255.999 494.997C387.993 494.997 494.995 387.995 494.995 256.001C494.995 124.007 387.993 17.0049 255.999 17.0049C124.005 17.0049 17.0033 124.007 17.0033 256.001C17.0033 387.995 124.005 494.997 255.999 494.997Z" fill="url(#paint0_linear_587_164)"/>
<path opacity="0.5" d="M430.505 267.643C427.635 309.893 409.553 349.672 379.607 379.613C349.661 409.555 309.88 427.632 267.63 430.496L188.332 351.197L323.54 160.685L430.505 267.643Z" fill="url(#paint1_linear_587_164)"/>
<path opacity="0.1" d="M341.013 242.628H268.802V170.417C268.802 168.736 268.471 167.071 267.828 165.517C267.184 163.964 266.241 162.553 265.052 161.364C263.863 160.175 262.452 159.232 260.899 158.589C259.345 157.945 257.681 157.614 255.999 157.615C254.318 157.614 252.653 157.945 251.1 158.589C249.546 159.232 248.135 160.175 246.946 161.364C245.757 162.553 244.813 163.964 244.17 165.517C243.526 167.071 243.195 168.736 243.195 170.417V242.628H170.984C167.613 242.666 164.393 244.031 162.023 246.428C159.652 248.825 158.323 252.06 158.323 255.431C158.323 258.802 159.652 262.037 162.023 264.434C164.393 266.831 167.613 268.197 170.984 268.234H243.195V340.447C243.196 343.843 244.545 347.099 246.946 349.5C249.347 351.901 252.604 353.25 255.999 353.25C259.395 353.25 262.651 351.901 265.052 349.5C267.453 347.099 268.802 343.843 268.802 340.447V268.234H341.013C342.706 268.253 344.386 267.936 345.956 267.301C347.526 266.666 348.955 265.726 350.159 264.535C351.363 263.345 352.319 261.927 352.971 260.364C353.624 258.801 353.96 257.125 353.96 255.431C353.96 253.738 353.624 252.061 352.971 250.498C352.319 248.936 351.363 247.518 350.159 246.327C348.955 245.136 347.526 244.196 345.956 243.561C344.386 242.926 342.706 242.609 341.013 242.628Z" fill="url(#paint2_linear_587_164)"/>
<path d="M285.226 276.747L194.145 351.122C193.33 351.788 192.319 352.167 191.268 352.203C190.217 352.239 189.183 351.928 188.325 351.319C187.467 350.711 186.833 349.837 186.52 348.833C186.206 347.829 186.231 346.749 186.591 345.761L226.778 235.241L285.226 276.747Z" fill="url(#paint3_linear_587_164)"/>
<path d="M285.226 276.748L226.778 235.248L317.865 160.879C318.68 160.214 319.69 159.834 320.742 159.798C321.793 159.763 322.827 160.073 323.685 160.683C324.542 161.292 325.176 162.166 325.489 163.17C325.802 164.175 325.776 165.254 325.416 166.242L285.226 276.748Z" fill="#EA6C88"/>
<path d="M243.198 274.032C239.632 271.501 236.896 267.968 235.337 263.882C233.778 259.795 233.466 255.338 234.441 251.074C235.415 246.81 237.632 242.931 240.811 239.927C243.99 236.923 247.989 234.929 252.301 234.198C256.613 233.466 261.045 234.03 265.037 235.818C269.029 237.605 272.401 240.537 274.727 244.241C277.053 247.945 278.228 252.256 278.104 256.628C277.979 261 276.562 265.237 274.029 268.803C270.586 273.521 265.436 276.708 259.677 277.685C253.918 278.662 248.005 277.351 243.198 274.032Z" fill="url(#paint4_linear_587_164)"/>
<path d="M255.999 17.0017C208.73 17.0017 162.522 31.0188 123.218 57.2803C83.9152 83.5419 53.2821 120.868 35.1928 164.54C17.1036 208.211 12.3706 256.266 21.5924 302.627C30.8142 348.988 53.5767 391.574 87.0013 424.999C120.426 458.423 163.011 481.186 209.373 490.408C255.734 499.629 303.789 494.896 347.46 476.807C391.132 458.718 428.458 428.085 454.72 388.782C480.981 349.478 494.998 303.27 494.998 256.001C494.999 224.615 488.818 193.536 476.808 164.539C464.797 135.541 447.193 109.194 424.999 87.0006C402.806 64.8073 376.459 47.2028 347.461 35.1923C318.464 23.1818 287.385 17.0007 255.999 17.0017ZM268.795 430.425V404.464C268.796 401.069 267.448 397.813 265.048 395.412C262.649 393.011 259.394 391.662 255.999 391.66C254.318 391.66 252.653 391.991 251.099 392.634C249.546 393.278 248.134 394.221 246.945 395.41C245.756 396.599 244.813 398.01 244.17 399.564C243.526 401.117 243.195 402.782 243.195 404.464V430.422C200.479 427.231 160.414 408.495 130.578 377.759C100.742 347.023 83.2055 306.419 81.2845 263.626H102.359C105.755 263.626 109.012 262.277 111.413 259.876C113.814 257.475 115.163 254.218 115.163 250.822C115.163 247.427 113.814 244.17 111.413 241.769C109.012 239.367 105.755 238.019 102.359 238.019H82.0286C86.3071 197.191 104.787 159.162 134.242 130.569C163.698 101.976 202.259 84.6337 243.195 81.5697V97.1843C243.196 100.58 244.545 103.836 246.947 106.236C249.348 108.637 252.604 109.985 255.999 109.985C257.681 109.985 259.345 109.654 260.899 109.01C262.452 108.367 263.864 107.424 265.052 106.235C266.241 105.046 267.184 103.634 267.827 102.081C268.471 100.527 268.802 98.8625 268.802 97.1811V81.5665C309.742 84.6284 348.307 101.969 377.766 130.563C407.226 159.157 425.709 197.188 429.991 238.019H409.639C406.243 238.019 402.986 239.367 400.585 241.769C398.184 244.17 396.835 247.427 396.835 250.822C396.835 254.218 398.184 257.475 400.585 259.876C402.986 262.277 406.243 263.626 409.639 263.626H430.727C428.804 306.42 411.264 347.026 381.426 377.762C351.588 408.498 311.52 427.233 268.802 430.424L268.795 430.425Z" fill="url(#paint5_linear_587_164)"/>
<path opacity="0.2" d="M494.998 256.001C494.998 319.387 469.818 380.177 424.997 424.998C380.176 469.819 319.386 495 255.999 495C192.613 495 131.822 469.819 87.0012 424.998C42.1802 380.177 17 319.387 17 256.001C17 252.081 17.0956 248.177 17.2868 244.29C20.308 305.564 46.7763 363.33 91.2118 405.629C135.647 447.927 194.647 471.519 255.996 471.519C317.345 471.519 376.344 447.927 420.78 405.629C465.216 363.33 491.684 305.564 494.705 244.29C494.9 248.174 494.998 252.078 494.998 256.001Z" fill="url(#paint6_linear_587_164)"/>
<path d="M256.006 494.992C388 494.992 495.002 387.99 495.002 255.996C495.002 124.002 388 17 256.006 17C124.012 17 17.0098 124.002 17.0098 255.996C17.0098 387.99 124.012 494.992 256.006 494.992Z" fill="url(#paint7_radial_587_164)"/>
<defs>
<linearGradient id="paint0_linear_587_164" x1="17.0033" y1="256.001" x2="494.995" y2="256.001" gradientUnits="userSpaceOnUse">
<stop stop-color="#F5FAFF"/>
<stop offset="1" stop-color="#B6D1F1"/>
</linearGradient>
<linearGradient id="paint1_linear_587_164" x1="391.786" y1="379.535" x2="137.317" y2="157.471" gradientUnits="userSpaceOnUse">
<stop stop-color="#D9E8F9" stop-opacity="0"/>
<stop offset="1"/>
</linearGradient>
<linearGradient id="paint2_linear_587_164" x1="226.813" y1="225.452" x2="352.705" y2="354.765" gradientUnits="userSpaceOnUse">
<stop stop-color="#383A44"/>
<stop offset="1" stop-color="#19223D"/>
</linearGradient>
<linearGradient id="paint3_linear_587_164" x1="192.774" y1="282.759" x2="251.195" y2="324.263" gradientUnits="userSpaceOnUse">
<stop stop-color="#93C2FF"/>
<stop offset="1" stop-color="#6A8FFF"/>
</linearGradient>
<linearGradient id="paint4_linear_587_164" x1="237.806" y1="243.072" x2="273.849" y2="268.678" gradientUnits="userSpaceOnUse">
<stop stop-color="#383A44"/>
<stop offset="1" stop-color="#19223D"/>
</linearGradient>
<linearGradient id="paint5_linear_587_164" x1="256.006" y1="60.474" x2="256.006" y2="645.582" gradientUnits="userSpaceOnUse">
<stop stop-color="#93C2FF"/>
<stop offset="1" stop-color="#6A8FFF"/>
</linearGradient>
<linearGradient id="paint6_linear_587_164" x1="256.005" y1="369.638" x2="256.005" y2="536.421" gradientUnits="userSpaceOnUse">
<stop stop-opacity="0"/>
<stop offset="1"/>
</linearGradient>
<radialGradient id="paint7_radial_587_164" cx="0" cy="0" r="1" gradientUnits="userSpaceOnUse" gradientTransform="translate(36.3034 57.8003) scale(238.999 238.999)">
<stop stop-color="#F5FAFF"/>
<stop offset="1" stop-color="#B6D1F1" stop-opacity="0"/>
</radialGradient>
</defs>
</svg>
