<svg width="512" height="512" viewBox="0 0 512 512" fill="none" xmlns="http://www.w3.org/2000/svg">
<path d="M481.512 151.109C481.515 151.048 481.504 150.987 481.48 150.931C481.456 150.875 481.42 150.825 481.374 150.785C480.646 149.28 479.915 147.777 479.141 146.272C478.817 145.588 478.457 144.951 478.139 144.312C456.932 103.373 424.521 69.3067 384.688 46.0868C344.856 22.867 299.242 11.4506 253.167 13.169C127.091 17.7087 24.3107 120.04 19.2116 246.094C17.8443 278.851 23.1152 311.546 34.7075 342.214C46.2998 372.882 63.974 400.889 86.6676 424.551C109.361 448.213 136.605 467.042 166.762 479.905C196.919 492.769 229.366 499.401 262.151 499.403H262.638C281.351 499.367 292.52 478.824 283.175 462.612C271.309 442.02 265.081 418.663 265.12 394.896C265.12 394.582 265.12 394.267 265.12 393.953C265.392 353.859 302.626 323.847 342.041 331.193C349.845 332.645 357.766 333.373 365.703 333.369C387.24 333.373 408.429 327.939 427.305 317.571C446.182 307.203 462.135 292.236 473.685 274.058C485.235 255.881 492.008 235.081 493.376 213.588C494.745 192.095 490.664 170.604 481.512 151.109Z" fill="url(#paint0_linear_216_94)"/>
<path d="M247.882 433.761C249.268 438.541 249.39 443.599 248.235 448.44C247.08 453.281 244.688 457.739 241.293 461.379C237.898 465.018 233.616 467.713 228.867 469.201C224.118 470.69 219.064 470.919 214.199 469.868C164.172 458.58 119.689 430.101 88.4989 389.391C57.3084 348.681 41.3861 298.32 43.5053 247.079C48.1001 133.631 140.578 41.5615 254.041 37.4758C256.736 37.3786 259.463 37.3299 262.148 37.3299C302.262 37.2629 341.621 48.2466 375.904 69.0759C410.187 89.9052 438.07 119.775 456.495 155.409C456.667 155.749 457.174 156.717 457.174 156.717L457.305 156.996L457.516 157.408C457.982 158.311 458.429 159.216 458.868 160.12L459.517 161.495C467.227 177.938 470.476 196.121 468.937 214.216C467.398 232.312 461.126 249.685 450.749 264.59C441.202 278.303 428.483 289.507 413.675 297.248C398.867 304.988 382.407 309.037 365.698 309.048C359.255 309.05 352.826 308.459 346.492 307.284C341.074 306.274 335.575 305.764 330.065 305.761C281.171 305.761 241.124 345.248 240.792 393.787V394.895C240.787 405.727 243.976 420.142 247.882 433.761Z" fill="url(#paint1_linear_216_94)"/>
<path opacity="0.6" d="M340.452 244.821L245.895 150.264L160.428 235.73L254.986 330.288L340.452 244.821Z" fill="url(#paint2_linear_216_94)"/>
<path opacity="0.6" d="M490.017 221.369L418.911 150.263L343.607 225.568L414.713 296.673L490.017 221.369Z" fill="url(#paint3_linear_216_94)"/>
<path d="M202.59 253.27C236.032 253.27 263.142 226.16 263.142 192.718C263.142 159.277 236.032 132.167 202.59 132.167C169.149 132.167 142.039 159.277 142.039 192.718C142.039 226.16 169.149 253.27 202.59 253.27Z" fill="url(#paint4_linear_216_94)"/>
<path opacity="0.6" d="M237.787 387.09L181.273 330.576L129.159 382.69L185.673 439.204L237.787 387.09Z" fill="url(#paint5_linear_216_94)"/>
<path d="M385.222 245.458C414.888 245.458 438.938 221.409 438.938 191.742C438.938 162.076 414.888 138.026 385.222 138.026C355.555 138.026 331.506 162.076 331.506 191.742C331.506 221.409 355.555 245.458 385.222 245.458Z" fill="url(#paint6_linear_216_94)"/>
<path d="M147.899 388.046C169.474 388.046 186.964 370.556 186.964 348.981C186.964 327.405 169.474 309.915 147.899 309.915C126.323 309.915 108.833 327.405 108.833 348.981C108.833 370.556 126.323 388.046 147.899 388.046Z" fill="url(#paint7_linear_216_94)"/>
<path d="M493.639 205.423C493.634 239.352 480.153 271.889 456.162 295.88C432.171 319.872 399.633 333.352 365.705 333.358C357.771 333.362 349.853 332.64 342.051 331.2C302.614 323.847 265.381 353.864 265.11 393.945V394.89C265.074 418.658 271.301 442.015 283.165 462.611C292.518 478.824 281.344 499.35 262.638 499.395H262.143C227.189 499.436 192.64 491.918 160.863 477.357C129.087 462.796 100.834 441.536 78.0427 415.035C122.132 453.214 178.525 474.188 236.847 474.101H237.342C256.049 474.056 267.224 453.528 257.871 437.317C246.007 416.721 239.779 393.363 239.816 369.594V368.651C240.085 328.56 277.319 298.545 316.757 305.906C324.559 307.346 332.477 308.068 340.41 308.064C361.945 308.066 383.132 302.632 402.007 292.264C420.882 281.897 436.834 266.932 448.384 248.756C459.934 230.581 466.709 209.784 468.079 188.293C469.45 166.801 465.373 145.312 456.226 125.816C456.227 125.757 456.216 125.698 456.192 125.644C456.169 125.59 456.134 125.541 456.09 125.502C455.349 123.996 454.63 122.49 453.842 120.983C453.526 120.309 453.168 119.655 452.853 119.026C444.099 102.19 433.406 86.4338 420.993 72.0796C444.458 92.3101 463.855 116.825 478.148 144.312C478.462 144.943 478.822 145.595 479.137 146.269C479.923 147.776 480.643 149.282 481.385 150.79C481.429 150.829 481.464 150.878 481.487 150.932C481.511 150.986 481.522 151.045 481.52 151.104C489.524 168.092 493.663 186.644 493.639 205.423Z" fill="url(#paint8_linear_216_94)"/>
<defs>
<linearGradient id="paint0_linear_216_94" x1="19.0009" y1="256.206" x2="493.634" y2="256.206" gradientUnits="userSpaceOnUse">
<stop stop-color="#FBB040"/>
<stop offset="1" stop-color="#F7941D"/>
</linearGradient>
<linearGradient id="paint1_linear_216_94" x1="447.722" y1="253.947" x2="21.7261" y2="253.947" gradientUnits="userSpaceOnUse">
<stop stop-color="#FBB040"/>
<stop offset="1" stop-color="#F7941D"/>
</linearGradient>
<linearGradient id="paint2_linear_216_94" x1="85.028" y1="74.8592" x2="279.49" y2="269.321" gradientUnits="userSpaceOnUse">
<stop offset="0.473"/>
<stop offset="1" stop-opacity="0"/>
</linearGradient>
<linearGradient id="paint3_linear_216_94" x1="294.19" y1="100.844" x2="440.488" y2="247.143" gradientUnits="userSpaceOnUse">
<stop offset="0.473"/>
<stop offset="1" stop-opacity="0"/>
</linearGradient>
<linearGradient id="paint4_linear_216_94" x1="121.802" y1="192.718" x2="282.348" y2="192.718" gradientUnits="userSpaceOnUse">
<stop stop-color="#F7941D"/>
<stop offset="1" stop-color="#EF4136"/>
</linearGradient>
<linearGradient id="paint5_linear_216_94" x1="80.4859" y1="281.87" x2="196.641" y2="398.025" gradientUnits="userSpaceOnUse">
<stop offset="0.473"/>
<stop offset="1" stop-opacity="0"/>
</linearGradient>
<linearGradient id="paint6_linear_216_94" x1="464.483" y1="191.742" x2="314.589" y2="191.742" gradientUnits="userSpaceOnUse">
<stop stop-color="#C6E5A1"/>
<stop offset="0.048" stop-color="#C3E39D"/>
<stop offset="0.429" stop-color="#AED980"/>
<stop offset="0.76" stop-color="#A1D26E"/>
<stop offset="1" stop-color="#9CD068"/>
</linearGradient>
<linearGradient id="paint7_linear_216_94" x1="68.3601" y1="348.981" x2="230.808" y2="348.981" gradientUnits="userSpaceOnUse">
<stop stop-color="#A4DCFF"/>
<stop offset="1" stop-color="#3384C1"/>
</linearGradient>
<linearGradient id="paint8_linear_216_94" x1="265.091" y1="259.131" x2="685.323" y2="679.363" gradientUnits="userSpaceOnUse">
<stop stop-opacity="0"/>
<stop offset="1"/>
</linearGradient>
</defs>
</svg>
