<svg width="512" height="512" viewBox="0 0 512 512" fill="none" xmlns="http://www.w3.org/2000/svg">
<path d="M476.478 160.846H185.527C181.343 160.846 177.331 162.508 174.372 165.467C171.413 168.426 169.751 172.438 169.751 176.622V420.311C169.751 424.495 171.413 428.508 174.372 431.466C177.331 434.425 181.343 436.087 185.527 436.088H415.997C425.779 436.087 435.284 439.332 443.024 445.313L466.832 463.703C469.165 465.507 471.958 466.62 474.892 466.917C477.826 467.214 480.785 466.682 483.432 465.382C486.08 464.082 488.31 462.066 489.869 459.563C491.429 457.06 492.255 454.17 492.255 451.22V176.622C492.255 174.551 491.847 172.499 491.054 170.585C490.261 168.671 489.099 166.932 487.634 165.467C486.169 164.002 484.43 162.839 482.516 162.047C480.602 161.254 478.55 160.846 476.478 160.846Z" fill="url(#paint0_linear_587_252)"/>
<path opacity="0.5" d="M463.546 160.846V364.161C463.53 375.578 458.985 386.523 450.91 394.594C442.835 402.666 431.888 407.205 420.47 407.216H169.755V176.624C169.755 174.552 170.162 172.5 170.955 170.585C171.747 168.67 172.91 166.931 174.375 165.465C175.84 164 177.58 162.838 179.495 162.045C181.409 161.252 183.461 160.845 185.534 160.846H463.546Z" fill="url(#paint1_linear_587_252)"/>
<path d="M420.47 23.1826H38.1248C32.6253 23.1826 27.351 25.3673 23.4623 29.256C19.5735 33.1448 17.3889 38.4191 17.3889 43.9186V404.776C17.3901 408.652 18.4772 412.449 20.5269 415.738C22.5766 419.026 25.5068 421.675 28.9853 423.383C32.4638 425.091 36.3513 425.79 40.207 425.401C44.0626 425.012 47.732 423.55 50.7991 421.182L85.8286 394.114C93.5682 388.133 103.073 384.888 112.855 384.887H420.47C425.97 384.887 431.244 382.703 435.133 378.814C439.022 374.925 441.206 369.651 441.206 364.151V43.9186C441.206 38.4191 439.022 33.1448 435.133 29.256C431.244 25.3673 425.97 23.1826 420.47 23.1826Z" fill="url(#paint2_linear_587_252)"/>
<path opacity="0.5" d="M253.822 176.03L201.089 228.763L341.924 369.598L394.657 316.866L253.822 176.03Z" fill="url(#paint3_linear_587_252)"/>
<path opacity="0.5" d="M441.209 250.075V355.562L314.424 228.761L367.152 176.033L441.209 250.075Z" fill="url(#paint4_linear_587_252)"/>
<path opacity="0.5" d="M140.492 176.03L87.7599 228.763L228.595 369.598L281.328 316.866L140.492 176.03Z" fill="url(#paint5_linear_587_252)"/>
<path d="M116.038 241.486C136.72 241.486 153.486 224.72 153.486 204.038C153.486 183.356 136.72 166.59 116.038 166.59C95.3562 166.59 78.5901 183.356 78.5901 204.038C78.5901 224.72 95.3562 241.486 116.038 241.486Z" fill="url(#paint6_linear_587_252)"/>
<path d="M229.297 241.486C249.98 241.486 266.746 224.72 266.746 204.038C266.746 183.356 249.98 166.59 229.297 166.59C208.615 166.59 191.849 183.356 191.849 204.038C191.849 224.72 208.615 241.486 229.297 241.486Z" fill="url(#paint7_linear_587_252)"/>
<path d="M342.557 241.486C363.239 241.486 380.005 224.72 380.005 204.038C380.005 183.356 363.239 166.59 342.557 166.59C321.875 166.59 305.109 183.356 305.109 204.038C305.109 224.72 321.875 241.486 342.557 241.486Z" fill="url(#paint8_linear_587_252)"/>
<path opacity="0.5" d="M441.209 333.386V364.161C441.207 369.658 439.021 374.93 435.132 378.816C431.244 382.703 425.971 384.886 420.474 384.886H112.864C103.085 384.888 93.5815 388.131 85.8396 394.106L50.8038 421.174C47.737 423.541 44.0683 425.002 40.2136 425.391C36.3589 425.78 32.4724 425.081 28.9946 423.373C25.5169 421.666 22.587 419.019 20.5371 415.731C18.4872 412.444 17.3993 408.648 17.3967 404.773V374.005C17.3975 377.88 18.4841 381.677 20.5333 384.966C22.5825 388.255 25.5123 390.904 28.9904 392.613C32.4685 394.321 36.3557 395.021 40.2113 394.632C44.0668 394.244 47.7364 392.783 50.8038 390.415L85.8396 363.347C93.5777 357.365 103.083 354.121 112.864 354.125H420.47C423.194 354.126 425.891 353.59 428.407 352.548C430.924 351.505 433.21 349.978 435.136 348.052C437.062 346.126 438.59 343.84 439.632 341.323C440.674 338.807 441.21 336.11 441.209 333.386Z" fill="url(#paint9_linear_587_252)"/>
<path opacity="0.5" d="M492.261 422.282V451.22C492.26 454.17 491.433 457.06 489.873 459.563C488.313 462.066 486.083 464.082 483.436 465.383C480.788 466.683 477.83 467.216 474.895 466.921C471.96 466.626 469.167 465.514 466.832 463.713L443.028 445.318C435.29 439.333 425.785 436.085 416.002 436.082H185.534C183.462 436.084 181.411 435.678 179.496 434.887C177.582 434.096 175.842 432.935 174.377 431.471C172.911 430.007 171.749 428.269 170.956 426.355C170.163 424.442 169.755 422.39 169.755 420.319V391.365C169.755 393.437 170.163 395.489 170.955 397.403C171.748 399.318 172.91 401.057 174.376 402.523C175.841 403.988 177.58 405.15 179.495 405.942C181.41 406.735 183.462 407.142 185.534 407.141H416.004C425.785 407.139 435.29 410.383 443.03 416.363L466.834 434.758C469.167 436.562 471.959 437.676 474.893 437.974C477.827 438.271 480.786 437.74 483.434 436.441C486.082 435.142 488.312 433.127 489.873 430.624C491.433 428.121 492.26 425.231 492.261 422.282Z" fill="url(#paint10_linear_587_252)"/>
<defs>
<linearGradient id="paint0_linear_587_252" x1="169.751" y1="313.937" x2="492.255" y2="313.937" gradientUnits="userSpaceOnUse">
<stop stop-color="#EFBD61"/>
<stop offset="1" stop-color="#F27A46"/>
</linearGradient>
<linearGradient id="paint1_linear_587_252" x1="221.559" y1="213.847" x2="457.935" y2="388.313" gradientUnits="userSpaceOnUse">
<stop/>
<stop offset="1" stop-opacity="0"/>
</linearGradient>
<linearGradient id="paint2_linear_587_252" x1="17.392" y1="224.367" x2="441.203" y2="224.367" gradientUnits="userSpaceOnUse">
<stop stop-color="#93C2FF"/>
<stop offset="1" stop-color="#6A8FFF"/>
</linearGradient>
<linearGradient id="paint3_linear_587_252" x1="322.134" y1="296.154" x2="46.9132" y2="20.9332" gradientUnits="userSpaceOnUse">
<stop stop-opacity="0"/>
<stop offset="1"/>
</linearGradient>
<linearGradient id="paint4_linear_587_252" x1="406.269" y1="267.878" x2="166.194" y2="27.803" gradientUnits="userSpaceOnUse">
<stop stop-opacity="0"/>
<stop offset="0.833"/>
</linearGradient>
<linearGradient id="paint5_linear_587_252" x1="208.855" y1="296.151" x2="-47.9794" y2="39.3168" gradientUnits="userSpaceOnUse">
<stop stop-opacity="0"/>
<stop offset="1"/>
</linearGradient>
<linearGradient id="paint6_linear_587_252" x1="98.5013" y1="185.35" x2="149.756" y2="239.965" gradientUnits="userSpaceOnUse">
<stop stop-color="#F5FAFF"/>
<stop offset="1" stop-color="#B6D1F1"/>
</linearGradient>
<linearGradient id="paint7_linear_587_252" x1="214.447" y1="185.718" x2="261.614" y2="243.9" gradientUnits="userSpaceOnUse">
<stop stop-color="#F5FAFF"/>
<stop offset="1" stop-color="#B6D1F1"/>
</linearGradient>
<linearGradient id="paint8_linear_587_252" x1="324.419" y1="185.322" x2="376.545" y2="239.104" gradientUnits="userSpaceOnUse">
<stop stop-color="#F5FAFF"/>
<stop offset="1" stop-color="#B6D1F1"/>
</linearGradient>
<linearGradient id="paint9_linear_587_252" x1="229.304" y1="327.159" x2="229.304" y2="503.795" gradientUnits="userSpaceOnUse">
<stop stop-opacity="0"/>
<stop offset="1"/>
</linearGradient>
<linearGradient id="paint10_linear_587_252" x1="331.008" y1="366.635" x2="331.008" y2="513.742" gradientUnits="userSpaceOnUse">
<stop offset="0.257" stop-opacity="0"/>
<stop offset="1"/>
</linearGradient>
</defs>
</svg>
