<svg width="512" height="512" viewBox="0 0 512 512" fill="none" xmlns="http://www.w3.org/2000/svg">
<path d="M261.767 491C293.36 491 318.972 465.388 318.972 433.795C318.972 402.201 293.36 376.589 261.767 376.589C230.173 376.589 204.561 402.201 204.561 433.795C204.561 465.388 230.173 491 261.767 491Z" fill="url(#paint0_linear_587_281)"/>
<path d="M128.327 429.706L128.327 159.639C128.327 142.115 131.779 124.763 138.485 108.574C145.191 92.3841 155.02 77.6739 167.411 65.2831C179.803 52.8922 194.513 43.0633 210.703 36.3576C226.893 29.6519 244.245 26.2008 261.768 26.2012C279.292 26.2012 296.643 29.6527 312.833 36.3585C329.022 43.0644 343.732 52.8934 356.123 65.2842C368.514 77.675 378.343 92.3851 385.049 108.575C391.754 124.764 395.206 142.116 395.206 159.639V429.706H128.327Z" fill="url(#paint1_linear_587_281)"/>
<path opacity="0.5" d="M338.726 190.141L234.486 294.394L128.341 188.25V159.634C128.318 141.687 131.928 123.921 138.954 107.406L197.464 48.8867L338.726 190.141Z" fill="url(#paint2_linear_587_281)"/>
<path d="M75.2096 447.68C75.2096 423.407 84.8522 400.128 102.016 382.964C119.18 365.8 142.459 356.157 166.733 356.157H356.802C381.076 356.157 404.355 365.8 421.519 382.964C438.683 400.128 448.325 423.407 448.325 447.68C448.325 449.425 447.632 451.099 446.398 452.333C445.164 453.567 443.49 454.26 441.745 454.26H81.788C80.0429 454.26 78.3692 453.567 77.1352 452.333C75.9013 451.099 75.208 449.425 75.208 447.68H75.2096Z" fill="url(#paint3_linear_587_281)"/>
<path d="M140.698 174.383C183.053 174.383 217.389 140.047 217.389 97.6915C217.389 55.3359 183.053 21 140.698 21C98.342 21 64.0061 55.3359 64.0061 97.6915C64.0061 140.047 98.342 174.383 140.698 174.383Z" fill="url(#paint4_linear_587_281)"/>
<path opacity="0.5" d="M217.389 97.6913C217.377 108.161 215.222 118.517 211.056 128.121C206.89 137.726 200.801 146.376 193.166 153.539C185.53 160.702 176.509 166.225 166.658 169.769C156.806 173.313 146.334 174.803 135.885 174.146C125.436 173.49 115.233 170.701 105.903 165.952C96.5727 161.203 88.3137 154.593 81.6347 146.531C74.9556 138.469 69.9979 129.125 67.0669 119.074C64.1359 109.024 63.2937 98.4793 64.5922 88.0908C66.9372 106.62 75.9615 123.657 89.9725 136.006C103.984 148.356 122.019 155.169 140.695 155.169C159.372 155.169 177.407 148.356 191.418 136.006C205.429 123.657 214.453 106.62 216.799 88.0908C217.194 91.2757 217.392 94.482 217.389 97.6913Z" fill="url(#paint5_linear_587_281)"/>
<path opacity="0.5" d="M448.318 447.685C448.315 449.426 447.622 451.095 446.39 452.327C445.159 453.558 443.49 454.251 441.748 454.254H81.7927C80.0495 454.254 78.3775 453.562 77.1438 452.331C75.9101 451.099 75.2156 449.428 75.2127 447.685C75.2055 440.43 76.0633 433.201 77.7679 426.149H445.761C447.466 433.201 448.324 440.43 448.318 447.685Z" fill="url(#paint6_linear_587_281)"/>
<defs>
<linearGradient id="paint0_linear_587_281" x1="261.767" y1="491" x2="261.767" y2="376.588" gradientUnits="userSpaceOnUse">
<stop stop-color="#EFBD61"/>
<stop offset="1" stop-color="#F27A46"/>
</linearGradient>
<linearGradient id="paint1_linear_587_281" x1="261.767" y1="429.707" x2="261.767" y2="26.2012" gradientUnits="userSpaceOnUse">
<stop stop-color="#F27A46"/>
<stop offset="1" stop-color="#EFBD61"/>
</linearGradient>
<linearGradient id="paint2_linear_587_281" x1="245.624" y1="201.294" x2="-71.089" y2="-115.421" gradientUnits="userSpaceOnUse">
<stop stop-opacity="0"/>
<stop offset="1"/>
</linearGradient>
<linearGradient id="paint3_linear_587_281" x1="261.767" y1="454.259" x2="261.767" y2="356.157" gradientUnits="userSpaceOnUse">
<stop stop-color="#EFBD61"/>
<stop offset="1" stop-color="#F27A46"/>
</linearGradient>
<linearGradient id="paint4_linear_587_281" x1="113.583" y1="70.5772" x2="218.246" y2="175.24" gradientUnits="userSpaceOnUse">
<stop stop-color="#C63454"/>
<stop offset="0.399" stop-color="#D95270"/>
<stop offset="0.755" stop-color="#E66582"/>
<stop offset="1" stop-color="#EA6C88"/>
</linearGradient>
<linearGradient id="paint5_linear_587_281" x1="140.695" y1="257.728" x2="140.695" y2="125.236" gradientUnits="userSpaceOnUse">
<stop/>
<stop offset="1" stop-opacity="0"/>
</linearGradient>
<linearGradient id="paint6_linear_587_281" x1="261.762" y1="426.149" x2="261.762" y2="493.25" gradientUnits="userSpaceOnUse">
<stop stop-opacity="0"/>
<stop offset="1"/>
</linearGradient>
</defs>
</svg>
