<svg width="512" height="512" viewBox="0 0 512 512" fill="none" xmlns="http://www.w3.org/2000/svg">
<path opacity="0.5" d="M106.009 309.661L26.7411 232.403C21.5387 227.37 18.1982 220.721 17.2662 213.542C16.3341 206.364 17.8658 199.082 21.6104 192.887C23.0493 195.23 24.7726 197.386 26.7411 199.305L106.004 276.564C109.736 280.193 112.527 284.677 114.136 289.628C115.744 294.579 116.122 299.847 115.236 304.977L112.79 319.284C111.138 315.688 108.839 312.427 106.009 309.661Z" fill="url(#paint0_linear_587_275)"/>
<path d="M284.817 44.9022L333.804 144.159C336.108 148.826 339.512 152.864 343.722 155.923C347.933 158.983 352.825 160.972 357.976 161.721L467.513 177.637C473.441 178.499 479.01 181.002 483.589 184.863C488.169 188.724 491.577 193.79 493.429 199.487C495.28 205.184 495.5 211.285 494.065 217.101C492.629 222.917 489.595 228.215 485.306 232.397L406.043 309.658C402.316 313.291 399.529 317.776 397.92 322.726C396.312 327.676 395.931 332.943 396.811 338.073L415.526 447.169C416.538 453.073 415.879 459.142 413.621 464.691C411.364 470.24 407.6 475.046 402.754 478.567C397.907 482.088 392.173 484.183 386.198 484.615C380.223 485.046 374.247 483.798 368.945 481.01L270.968 429.503C266.361 427.081 261.234 425.816 256.029 425.816C250.824 425.816 245.697 427.081 241.09 429.503L143.118 481.01C137.816 483.8 131.839 485.05 125.863 484.619C119.887 484.188 114.151 482.093 109.304 478.572C104.457 475.051 100.691 470.244 98.4341 464.694C96.1768 459.144 95.5175 453.074 96.5308 447.169L115.242 338.073C116.122 332.943 115.741 327.676 114.133 322.726C112.524 317.776 109.736 313.291 106.008 309.658L26.7472 232.397C22.4579 228.215 19.424 222.917 17.9885 217.102C16.5531 211.286 16.7733 205.185 18.6243 199.488C20.4753 193.79 23.8832 188.725 28.4628 184.864C33.0424 181.002 38.6109 178.499 44.5388 177.637L154.076 161.721C159.227 160.973 164.119 158.983 168.33 155.924C172.541 152.864 175.944 148.827 178.247 144.159L227.234 44.9022C229.885 39.5287 233.986 35.0042 239.074 31.8405C244.162 28.6767 250.034 27 256.026 27C262.017 27 267.889 28.6767 272.978 31.8405C278.066 35.0042 282.167 39.5287 284.817 44.9022Z" fill="url(#paint1_linear_587_275)"/>
<path opacity="0.5" d="M415.526 447.167C416.54 453.071 415.882 459.142 413.625 464.691C411.368 470.241 407.603 475.048 402.756 478.569C397.909 482.09 392.173 484.184 386.197 484.614C380.222 485.045 374.245 483.794 368.944 481.004L270.976 429.512C266.37 427.084 261.241 425.815 256.034 425.815C250.827 425.815 245.699 427.084 241.092 429.512L143.127 481.004C137.825 483.798 131.846 485.051 125.869 484.623C119.891 484.194 114.153 482.101 109.304 478.579C104.454 475.058 100.688 470.249 98.4307 464.697C96.1734 459.146 95.5154 453.073 96.5313 447.167L98.9581 432.986C100.793 436.94 103.412 440.48 106.657 443.391C109.903 446.301 113.706 448.522 117.836 449.916C121.966 451.311 126.337 451.852 130.682 451.505C135.028 451.159 139.257 449.932 143.114 447.9L241.08 396.406C245.686 393.979 250.815 392.71 256.022 392.71C261.228 392.71 266.357 393.979 270.963 396.406L368.931 447.9C372.787 449.932 377.017 451.159 381.362 451.505C385.708 451.852 390.078 451.311 394.208 449.916C398.338 448.521 402.141 446.301 405.386 443.391C408.631 440.48 411.251 436.94 413.085 432.986L415.526 447.167Z" fill="url(#paint2_linear_587_275)"/>
<defs>
<linearGradient id="paint0_linear_587_275" x1="124.388" y1="316.683" x2="57.0791" y2="244.511" gradientUnits="userSpaceOnUse">
<stop/>
<stop offset="1" stop-opacity="0"/>
</linearGradient>
<linearGradient id="paint1_linear_587_275" x1="17.0228" y1="255.888" x2="495.035" y2="255.888" gradientUnits="userSpaceOnUse">
<stop stop-color="#EFBD61"/>
<stop offset="1" stop-color="#F27A46"/>
</linearGradient>
<linearGradient id="paint2_linear_587_275" x1="256.029" y1="573.517" x2="256.029" y2="416.12" gradientUnits="userSpaceOnUse">
<stop/>
<stop offset="1" stop-opacity="0"/>
</linearGradient>
</defs>
</svg>
