<svg preserveAspectRatio="none" width="100%" height="100%" overflow="visible" style="display: block;" viewBox="0 0 23.04 23.04" fill="none" xmlns="http://www.w3.org/2000/svg">
<g id="Google svg">
<path id="Vector" d="M21.6575 11.76C21.6575 11.0112 21.5903 10.2912 21.4655 9.6H11.5199V13.6848H17.2031C16.9583 15.0048 16.2143 16.1232 15.0959 16.872V19.5216H18.5087C20.5055 17.6832 21.6575 14.976 21.6575 11.76Z" fill="var(--fill-0, #4285F4)"/>
<path id="Vector_2" d="M11.5198 22.08C14.371 22.08 16.7614 21.1344 18.5086 19.5216L15.0958 16.872C14.1502 17.5056 12.9406 17.88 11.5198 17.88C8.76943 17.88 6.44143 16.0224 5.61103 13.5264H2.08303V16.2624C3.82063 19.7136 7.39183 22.08 11.5198 22.08Z" fill="var(--fill-0, #34A853)"/>
<path id="Vector_3" d="M5.6111 13.5264C5.3999 12.8928 5.2799 12.216 5.2799 11.52C5.2799 10.824 5.3999 10.1472 5.6111 9.51362V6.77762H2.0831C1.3439 8.24916 0.959251 9.87325 0.959903 11.52C0.959903 13.224 1.3679 14.8368 2.0831 16.2624L5.6111 13.5264Z" fill="var(--fill-0, #FBBC05)"/>
<path id="Vector_4" d="M11.5198 5.16C13.0702 5.16 14.4622 5.6928 15.5566 6.7392L18.5854 3.7104C16.7566 2.0064 14.3662 0.960001 11.5198 0.960001C7.39183 0.960001 3.82063 3.3264 2.08303 6.7776L5.61103 9.5136C6.44143 7.0176 8.76943 5.16 11.5198 5.16Z" fill="var(--fill-0, #EA4335)"/>
<g id="Vector_5">
</g>
</g>
</svg>
