<svg width="161" height="34" viewBox="0 0 161 34" fill="none" xmlns="http://www.w3.org/2000/svg">
<g clip-path="url(#clip0_45_414)">
<g clip-path="url(#clip1_45_414)">
<path d="M83.3473 0V33.0601H78.0703V0H83.3473Z" fill="white"/>
<path d="M83.3473 0V33.0601H78.0703V0H83.3473Z" fill="white"/>
<path d="M59.6169 33.28H66.0719L55.2665 19.1922C57.5909 18.721 59.4599 17.6374 60.8733 15.9569C62.2869 14.2764 62.9936 12.2661 62.9936 9.92593C62.9936 6.92622 61.8628 4.52327 59.6013 2.68573C57.5438 1.03666 54.2143 0.219971 49.5968 0.219971H43.4246V9.84741L53.2091 24.5792L59.6169 33.28ZM48.6859 4.90022H50.5706C55.4236 4.90022 57.8579 6.5964 57.8579 9.97308C57.8579 13.5854 55.3607 15.3915 50.3664 15.3915H48.6859V4.90022Z" fill="white"/>
<path d="M59.6169 33.28H66.0719L55.2665 19.1922C57.5909 18.721 59.4599 17.6374 60.8733 15.9569C62.2869 14.2764 62.9936 12.2661 62.9936 9.92593C62.9936 6.92622 61.8628 4.52327 59.6013 2.68573C57.5438 1.03666 54.2143 0.219971 49.5968 0.219971H43.4246V9.84741L53.2091 24.5792L59.6169 33.28ZM48.6859 4.90022H50.5706C55.4236 4.90022 57.8579 6.5964 57.8579 9.97308C57.8579 13.5854 55.3607 15.3915 50.3664 15.3915H48.6859V4.90022Z" fill="white"/>
<path d="M14.7471 16.7262V21.4221H23.4637C23.2281 23.7466 22.0659 25.7411 20.0085 27.4059C19.8985 27.5001 19.7886 27.5787 19.6786 27.6572L22.9925 31.3794C23.7778 30.7984 24.5159 30.1387 25.207 29.4005C26.6362 27.8614 27.657 26.1966 28.2538 24.4376C28.8663 22.5215 29.1804 20.3228 29.1804 17.8413V16.7419H14.7471V16.7262Z" fill="white"/>
<path d="M4.09914 8.54376C6.59631 6.12514 9.70603 4.93151 13.3968 4.93151C17.5116 4.93151 20.9983 6.73766 23.8724 10.3499L27.626 6.94182C25.443 4.57028 23.2127 2.8741 20.9511 1.82183C18.5796 0.769563 16.0353 0.251282 13.3026 0.251282C8.21398 0.251282 3.91066 1.93176 0.36122 5.27704C0.235576 5.38697 0.125644 5.51262 0 5.63827L3.31386 9.36046C3.56515 9.07774 3.83214 8.81079 4.09914 8.54376Z" fill="white"/>
<path d="M14.7476 16.7261V21.4221H23.4641C23.2286 23.7465 22.0664 25.7411 20.009 27.4059C19.899 27.5001 19.7891 27.5787 19.6791 27.6572L22.993 31.3794C23.7782 30.7983 24.5164 30.1386 25.2075 29.4005C26.6367 27.8613 27.6575 26.1966 28.2543 24.4376C28.8668 22.5215 29.1809 20.3227 29.1809 17.8413V16.7418H14.7476V16.7261Z" fill="white"/>
<path d="M4.09914 8.54376C6.59631 6.12514 9.70603 4.93151 13.3968 4.93151C17.5116 4.93151 20.9983 6.73766 23.8724 10.3499L27.626 6.94182C25.443 4.57029 23.2127 2.8741 20.9511 1.82183C18.5796 0.769563 16.0353 0.251282 13.3026 0.251282C8.21398 0.251282 3.91066 1.93176 0.36122 5.27704C0.235576 5.38697 0.125644 5.51262 0 5.63827L3.31386 9.36046C3.56515 9.07774 3.83214 8.81079 4.09914 8.54376Z" fill="white"/>
<path d="M98.5205 0.219971V21.2182L103.782 29.1495V17.5432H115.53V12.8472H103.782V4.90022H115.53V0.219971H98.5205Z" fill="white"/>
<path d="M98.5205 0.219971V21.2182L103.782 29.1495V17.5432H115.53V12.8472H103.782V4.90022H115.53V0.219971H98.5205Z" fill="white"/>
<path d="M148.071 4.90022V0.219971H130.637V21.2182L135.899 29.1495V17.5432H147.647V12.8472H135.899V4.90022H148.071Z" fill="white"/>
<path d="M148.071 4.90022V0.219971H130.637V21.2182L135.899 29.1495V17.5432H147.647V12.8472H135.899V4.90022H148.071Z" fill="white"/>
</g>
</g>
<defs>
<clipPath id="clip0_45_414">
<rect width="160.853" height="33.28" fill="white"/>
</clipPath>
<clipPath id="clip1_45_414">
<rect width="160.853" height="33.28" fill="white"/>
</clipPath>
</defs>
</svg>
