<svg preserveAspectRatio="none" width="100%" height="100%" overflow="visible" style="display: block;" viewBox="0 0 160.853 33.28" fill="none" xmlns="http://www.w3.org/2000/svg">
<g id="logo-full.svg" clip-path="url(#clip0_0_118)">
<path id="Vector" d="M83.3472 1.83105e-06V33.0601H78.0703V1.83105e-06H83.3472Z" fill="var(--fill-0, white)"/>
<path id="Vector_2" d="M83.3472 1.83105e-06V33.0601H78.0703V1.83105e-06H83.3472Z" fill="var(--fill-0, white)"/>
<path id="Vector_3" d="M59.617 33.28H66.072L55.2666 19.1922C57.591 18.721 59.46 17.6374 60.8734 15.9569C62.2869 14.2764 62.9937 12.2661 62.9937 9.92593C62.9937 6.92621 61.8629 4.52327 59.6013 2.68573C57.5439 1.03665 54.2143 0.219963 49.5969 0.219963H43.4246V9.8474L53.2092 24.5792L59.617 33.28ZM48.686 4.90021H50.5706C55.4237 4.90021 57.858 6.5964 57.858 9.97307C57.858 13.5854 55.3608 15.3915 50.3664 15.3915H48.686V4.90021Z" fill="var(--fill-0, white)"/>
<path id="Vector_4" d="M59.617 33.28H66.072L55.2666 19.1922C57.591 18.721 59.46 17.6374 60.8734 15.9569C62.2869 14.2764 62.9937 12.2661 62.9937 9.92593C62.9937 6.92621 61.8629 4.52327 59.6013 2.68573C57.5439 1.03665 54.2143 0.219963 49.5969 0.219963H43.4246V9.8474L53.2092 24.5792L59.617 33.28ZM48.686 4.90021H50.5706C55.4237 4.90021 57.858 6.5964 57.858 9.97307C57.858 13.5854 55.3608 15.3915 50.3664 15.3915H48.686V4.90021Z" fill="var(--fill-0, white)"/>
<path id="Vector_5" d="M14.7471 16.7262V21.4221H23.4637C23.2282 23.7466 22.066 25.7411 20.0085 27.4059C19.8986 27.5001 19.7887 27.5787 19.6787 27.6572L22.9926 31.3794C23.7778 30.7983 24.516 30.1387 25.207 29.4005C26.6363 27.8614 27.6571 26.1966 28.2539 24.4376C28.8664 22.5215 29.1805 20.3228 29.1805 17.8413V16.7419H14.7471V16.7262Z" fill="var(--fill-0, white)"/>
<path id="Vector_6" d="M4.09909 8.54377C6.59626 6.12515 9.70598 4.93152 13.3967 4.93152C17.5116 4.93152 20.9982 6.73767 23.8723 10.3499L27.6259 6.94182C25.4429 4.57029 23.2127 2.87411 20.9511 1.82184C18.5795 0.769572 16.0353 0.251291 13.3025 0.251291C8.21393 0.251291 3.91061 1.93177 0.361171 5.27705C0.235527 5.38698 0.125595 5.51263 -4.88281e-05 5.63828L3.31382 9.36047C3.5651 9.07775 3.8321 8.8108 4.09909 8.54377Z" fill="var(--fill-0, white)"/>
<path id="Vector_7" d="M14.7475 16.7261V21.4221H23.464C23.2285 23.7465 22.0663 25.7411 20.0089 27.4059C19.8989 27.5001 19.789 27.5787 19.679 27.6572L22.9929 31.3794C23.7781 30.7983 24.5163 30.1386 25.2074 29.4005C26.6366 27.8613 27.6574 26.1966 28.2542 24.4376C28.8667 22.5215 29.1808 20.3227 29.1808 17.8413V16.7418H14.7475V16.7261Z" fill="var(--fill-0, white)"/>
<path id="Vector_8" d="M4.09909 8.54377C6.59626 6.12515 9.70598 4.93152 13.3967 4.93152C17.5116 4.93152 20.9982 6.73767 23.8723 10.3499L27.6259 6.94182C25.4429 4.5703 23.2127 2.87411 20.9511 1.82184C18.5795 0.769572 16.0353 0.251291 13.3025 0.251291C8.21393 0.251291 3.91061 1.93177 0.361171 5.27705C0.235527 5.38698 0.125595 5.51263 -4.88281e-05 5.63828L3.31382 9.36047C3.5651 9.07775 3.8321 8.8108 4.09909 8.54377Z" fill="var(--fill-0, white)"/>
<path id="Vector_9" d="M98.5206 0.219963V21.2182L103.782 29.1495V17.5432H115.53V12.8472H103.782V4.90021H115.53V0.219963H98.5206Z" fill="var(--fill-0, white)"/>
<path id="Vector_10" d="M98.5206 0.219963V21.2182L103.782 29.1495V17.5432H115.53V12.8472H103.782V4.90021H115.53V0.219963H98.5206Z" fill="var(--fill-0, white)"/>
<path id="Vector_11" d="M148.071 4.90021V0.219963H130.637V21.2182L135.899 29.1495V17.5432H147.647V12.8472H135.899V4.90021H148.071Z" fill="var(--fill-0, white)"/>
<path id="Vector_12" d="M148.071 4.90021V0.219963H130.637V21.2182L135.899 29.1495V17.5432H147.647V12.8472H135.899V4.90021H148.071Z" fill="var(--fill-0, white)"/>
</g>
<defs>
<clipPath id="clip0_0_118">
<rect width="160.853" height="33.28" fill="white"/>
</clipPath>
</defs>
</svg>
